<?xml version="1.0" encoding="UTF-8"?>
<svg version="1.1" viewBox="0 0 2000 828" width="500" height="207" xmlns="http://www.w3.org/2000/svg">
<path transform="translate(1171,47)" d="m0 0h22l20 4 13 5 13 7 11 8 15 15 7 10 8 16 4 10 3 13 2 45 4 16 9 21 7 13 11 16 9 11 10 11 11 9 14 10 17 9 13 4 13 2h38l14 3 16 5 16 9 12 9 9 9 11 16 7 16 5 15 1 6v30l-5 25-8 16-11 15-7 8-11 9-14 9-13 6-15 4-13 2-23 1-14 2-23 7-17 8-16 10-10 8-12 11-11 12-6 8-12 21-3 7-4 19v52l-4 17-8 16-8 12-11 13-11 10-16 9-15 6-19 5h-26l-23-6-18-8-11-7-12-11-7-8-10-15-6-14-6-21-1-6v-16l3-17 5-16 8-16 8-11 14-15 12-9 16-8 15-5 10-2 16-1h31l13-3 16-7 12-7 13-11 11-9 12-14 14-21 8-16 6-14 3-11 2-17 1-32 1-4v-15l-6-24-7-14-10-16-9-11-17-17-21-14-25-12-15-5-14-2-35-3-16-3-21-9-11-7-16-15-11-15-5-8-5-13-6-20v-24l5-21 5-14 8-14 7-9 10-11 11-9 16-9 16-6z" fill="#20CCFE"/>
<path transform="translate(789,49)" d="m0 0h27l18 4 12 5 16 9 13 11 9 10 7 10 8 16 5 17 2 17v12l-3 19-4 13-8 16-7 10-11 12-10 9-16 9-19 7-21 3-19 1-19 3-24 8-19 10-16 11-10 9-8 7-12 14-13 21-8 19-2 12v18l1 7v27l3 18 5 17 9 20 7 11 7 10 13 16 7 7 11 9 12 9 9 5 13 6 14 4h29l20 1 12 2 19 8 16 9 10 9 7 7 11 16 6 12 5 14 2 12 1 18-2 18-4 16-8 16-7 11-12 13-14 11-12 7-16 6-16 4-7 1h-15l-14-3-17-5-16-8-10-7-11-10-12-17-9-17-6-21-1-7v-23l1-15-2-15-3-11-7-16-9-14-7-9-7-8-12-12-13-9-10-7-23-11-17-6-17-2-26-1-12-2-24-8-14-7-13-10-7-7-10-13-8-16-6-15-3-16-1-16 3-24 6-16 7-14 8-10 9-10 12-10 14-8 11-5 20-5 7-1h23l14 1 16-3 16-7 13-8 16-12 17-17 12-16 10-18 8-19 5-17 2-18v-22l4-20 6-17 9-15 8-10 11-11 13-9 16-8 14-4z" fill="#4364FD"/>
<path transform="translate(978,303)" d="m0 0h27l22 5 19 9 11 8 10 9 9 10 10 16 7 17 3 14v32l-3 14-6 17-7 11-11 15-10 9-15 10-15 7-18 5-5 1h-28l-21-5-16-7-12-8-14-12-9-11-10-18-6-16-3-16v-23l4-20 9-20 6-10 12-14 10-9 13-8 13-6 18-5z" fill="#4464FD"/>
<path transform="translate(1125,63)" d="m0 0 2 1-10 8-18 18v-3l12-13 11-9z" fill="#D2F4FE"/>
</svg>
